inDegrees=yes
name=ik_MT_012005D6_009-001_orientations
DataType=double
version=3
OpenSimVersion=4.4-2022-07-23-0e9fedc
endheader
time	pelvis_tilt	pelvis_list	pelvis_rotation	pelvis_tx	pelvis_ty	pelvis_tz	hip_flexion_r	hip_adduction_r	hip_rotation_r	knee_angle_r	knee_angle_r_beta	ankle_angle_r	subtalar_angle_r	mtp_angle_r	hip_flexion_l	hip_adduction_l	hip_rotation_l	knee_angle_l	knee_angle_l_beta	ankle_angle_l	subtalar_angle_l	mtp_angle_l	lumbar_extension	lumbar_bending	lumbar_rotation	arm_flex_r	arm_add_r	arm_rot_r	elbow_flex_r	pro_sup_r	wrist_flex_r	wrist_dev_r	arm_flex_l	arm_add_l	arm_rot_l	elbow_flex_l	pro_sup_l	wrist_flex_l	wrist_dev_l
0	0	0	0	0	0.93	0	38.93945937274139	-49.99624558072711	-39.99783687828414	74.49607367427681	1.3002017654244	27.10920207081228	0	0	30.41245786000886	29.99617758284421	39.99836703996902	41.82957318139565	0.7300637767192732	-11.4904792284253	0	0	0	0	0	0	0	0	0	0	0	0	0	0	0	0	0	0	0
0.01	0	0	0	0	0.93	0	38.94481291389278	-49.99624456817934	-39.99783716931449	74.44006904691575	1.299224300280597	27.04519224467551	0	0	30.41723952162577	29.99617818463853	39.99836663223539	41.82407093125448	0.7299677443380416	-11.49857340314064	0	0	0	0	0	0	0	0	0	0	0	0	0	0	0	0	0	0	0
0.02	0	0	0	0	0.93	0	38.94990379309866	-49.99624421637888	-39.99783730443063	74.40085840712511	1.298539945514437	27.00368578967042	0	0	30.41777786560434	29.99617886238316	39.9983662761413	41.8214293034524	0.7299216392352831	-11.50469181782868	0	0	0	0	0	0	0	0	0	0	0	0	0	0	0	0	0	0	0
0.03	0	0	0	0	0.93	0	38.95383215659764	-49.99624444271836	-39.99783745137319	74.37384988795509	1.298068557928832	26.97573113057835	0	0	30.42144425419641	29.99617939078809	39.99836586479506	41.81801979084296	0.7298621320143601	-11.50770792695329	0	0	0	0	0	0	0	0	0	0	0	0	0	0	0	0	0	0	0
0.04	0	0	0	0	0.93	0	38.95961838350508	-49.9962450529871	-39.99783754076497	74.35178084395321	1.297683380448232	26.95423993595342	0	0	30.42141981087068	29.99617949646072	39.99836550011327	41.81577973938393	0.7298230357409859	-11.50900938813236	0	0	0	0	0	0	0	0	0	0	0	0	0	0	0	0	0	0	0
0.05	0	0	0	0	0.93	0	38.9642865868891	-49.99624547686723	-39.99783757402671	74.33419819720631	1.297376505371283	26.93863567913217	0	0	30.42324133926901	29.99618012978356	39.99836518448788	41.8131016458166	0.7297762941905596	-11.50825504248301	0	0	0	0	0	0	0	0	0	0	0	0	0	0	0	0	0	0	0
0.06	0	0	0	0	0.93	0	38.96839730635736	-49.99624600854898	-39.99783754875266	74.31985255781936	1.297126126730677	26.92470449030897	0	0	30.42246085450604	29.99618064227698	39.99836491162618	41.81001744333398	0.7297224647024397	-11.50748844261354	0	0	0	0	0	0	0	0	0	0	0	0	0	0	0	0	0	0	0
0.07000000000000001	0	0	0	0	0.93	0	38.97197735734675	-49.99624651168443	-39.99783748524523	74.30609055455974	1.296885934462127	26.91252543125724	0	0	30.42400626872238	29.99618138693965	39.99836466349256	41.80581132734532	0.7296490541297167	-11.50699701198646	0	0	0	0	0	0	0	0	0	0	0	0	0	0	0	0	0	0	0
0.08	0	0	0	0	0.93	0	38.97498700358577	-49.99624681564858	-39.9978373785098	74.29415860166053	1.296677682597843	26.90205379161268	0	0	30.42444087588803	29.99618213928249	39.9983644229689	41.80201674973192	0.7295828262566404	-11.50706638277743	0	0	0	0	0	0	0	0	0	0	0	0	0	0	0	0	0	0	0
0.09	0	0	0	0	0.93	0	38.97876571555339	-49.99624724286054	-39.99783723328358	74.28006633258406	1.296431726103381	26.89174325264	0	0	30.42644953082894	29.99618302037475	39.99836422873091	41.7969329061745	0.7294940964479072	-11.50659417967491	0	0	0	0	0	0	0	0	0	0	0	0	0	0	0	0	0	0	0
0.09999999999999999	0	0	0	0	0.93	0	38.98370141843569	-49.99624795381867	-39.99783714871709	74.26709002610768	1.29620524683062	26.88378128545353	0	0	30.4265466061005	29.99618401389288	39.99836409344601	41.79335646727929	0.7294316758136894	-11.50690011648326	0	0	0	0	0	0	0	0	0	0	0	0	0	0	0	0	0	0	0
0.11	0	0	0	0	0.93	0	38.98602859296236	-49.99624869216267	-39.99783707082902	74.25619787222867	1.296015142882798	26.87264246359911	0	0	30.42861236668908	29.99618466296625	39.99836391343921	41.78860011205163	0.7293486617545722	-11.50559116122289	0	0	0	0	0	0	0	0	0	0	0	0	0	0	0	0	0	0	0
0.12	0	0	0	0	0.93	0	38.9894557923244	-49.99624922007925	-39.9978369524073	74.24365013342377	1.295796143526972	26.86011314609026	0	0	30.42930111642699	29.99618506410967	39.99836366054138	41.78429672846122	0.7292735535419433	-11.5066442983506	0	0	0	0	0	0	0	0	0	0	0	0	0	0	0	0	0	0	0
0.13	0	0	0	0	0.93	0	38.99407752995586	-49.99625009034802	-39.99783690345613	74.22811838410479	1.295525063362762	26.84625643364469	0	0	30.43079748389878	29.99618554450755	39.99836341378644	41.77988769987405	0.7291966014762825	-11.5068478950984	0	0	0	0	0	0	0	0	0	0	0	0	0	0	0	0	0	0	0
0.14	0	0	0	0	0.93	0	39.00023904063518	-49.99625115372227	-39.99783694391383	74.2132141732599	1.295264935811107	26.83301651430761	0	0	30.43097360674003	29.99618583616829	39.99836320743179	41.77688781670012	0.7291442436377225	-11.50563868517222	0	0	0	0	0	0	0	0	0	0	0	0	0	0	0	0	0	0	0
0.15	0	0	0	0	0.93	0	39.00482733051408	-49.99625231217694	-39.99783704563888	74.19807118997349	1.295000640894184	26.81998359321117	0	0	30.4325815221657	29.99618621683817	39.99836301104749	41.77408866052784	0.7290953891462385	-11.50550242917024	0	0	0	0	0	0	0	0	0	0	0	0	0	0	0	0	0	0	0
0.16	0	0	0	0	0.93	0	39.01224320334429	-49.996253700286	-39.99783717750411	74.18126103908334	1.294707248413394	26.80688619792663	0	0	30.43366826579278	29.99618657692124	39.99836285410231	41.77041399581639	0.729031254148117	-11.50615529471229	0	0	0	0	0	0	0	0	0	0	0	0	0	0	0	0	0	0	0
0.17	0	0	0	0	0.93	0	39.01880931228683	-49.9962554917307	-39.99783745096859	74.16418044769001	1.294409135855393	26.7940301721665	0	0	30.43649314115186	29.9961870161552	39.99836271064522	41.76637693452854	0.7289607941365392	-11.5077751090944	0	0	0	0	0	0	0	0	0	0	0	0	0	0	0	0	0	0	0
0.18	0	0	0	0	0.93	0	39.02644471075	-49.99625715266436	-39.99783764404629	74.14978467134414	1.294157882159777	26.7807345679591	0	0	30.43644790293307	29.99618778526954	39.99836263728637	41.76481438311087	0.7289335224695691	-11.50743563016326	0	0	0	0	0	0	0	0	0	0	0	0	0	0	0	0	0	0	0
0.19	0	0	0	0	0.93	0	39.03093078737178	-49.99625874197302	-39.99783786593171	74.1355070400415	1.29390869048416	26.77077771637166	0	0	30.44004682432203	29.99618878692823	39.998362557363	41.76261411366042	0.7288951205232277	-11.50574321289457	0	0	0	0	0	0	0	0	0	0	0	0	0	0	0	0	0	0	0
0.2	0	0	0	0	0.93	0	39.03861725077287	-49.99626074713831	-39.99783809634546	74.11986679254392	1.2936357166695	26.75931993547488	0	0	30.44064404601325	29.99618972112539	39.99836251619209	41.76103461944402	0.7288675531486353	-11.50463693438371	0	0	0	0	0	0	0	0	0	0	0	0	0	0	0	0	0	0	0
0.21	0	0	0	0	0.93	0	39.0449157886332	-49.99626267758711	-39.99783832953521	74.10584261373293	1.29339094857436	26.74704271302397	0	0	30.44513057505259	29.99619119888138	39.99836253082164	41.75725854584068	0.7288016482314594	-11.50634454469461	0	0	0	0	0	0	0	0	0	0	0	0	0	0	0	0	0	0	0
0.2200000000000001	0	0	0	0	0.93	0	39.05196522643091	-49.99626444861802	-39.99783854567647	74.09075365192521	1.293127596510108	26.73546911128298	0	0	30.44611146016049	29.99619244898577	39.9983625631598	41.75253688610637	0.7287192397229368	-11.50957434152542	0	0	0	0	0	0	0	0	0	0	0	0	0	0	0	0	0	0	0
0.2300000000000001	0	0	0	0	0.93	0	39.05784155821451	-49.99626635495528	-39.99783876616998	74.07521483126567	1.292856392927722	26.72119221989963	0	0	30.44910378001253	29.99619362132852	39.99836265282003	41.74769977898421	0.7286348162773835	-11.51238423475937	0	0	0	0	0	0	0	0	0	0	0	0	0	0	0	0	0	0	0
0.2400000000000001	0	0	0	0	0.93	0	39.06458341195942	-49.99626829198004	-39.99783901818421	74.06016547048894	1.292593732031847	26.70702903058538	0	0	30.45051510849675	29.99619508732868	39.99836279871237	41.74429478105993	0.7285753878525811	-11.51864592617481	0	0	0	0	0	0	0	0	0	0	0	0	0	0	0	0	0	0	0
0.2500000000000001	0	0	0	0	0.93	0	39.07058492835838	-49.99626998975637	-39.99783930677619	74.0440851876514	1.292313078151681	26.69527869031448	0	0	30.45330979219033	29.99619628967242	39.99836291552131	41.73874637729448	0.728478549938644	-11.52072282261897	0	0	0	0	0	0	0	0	0	0	0	0	0	0	0	0	0	0	0
0.2600000000000001	0	0	0	0	0.93	0	39.07758362005828	-49.99627147065735	-39.99783951789603	74.02687814507816	1.292012758604246	26.68212527349213	0	0	30.45438942032407	29.99619703273709	39.9983630522309	41.73563675123184	0.7284242767253452	-11.52333943778112	0	0	0	0	0	0	0	0	0	0	0	0	0	0	0	0	0	0	0
0.2700000000000001	0	0	0	0	0.93	0	39.08259696738082	-49.99627275280429	-39.99783971789908	74.01346659251085	1.291778682854143	26.66919310192334	0	0	30.45573486640456	29.99619821343627	39.99836317069897	41.73345217397836	0.7283861486595078	-11.52570110879898	0	0	0	0	0	0	0	0	0	0	0	0	0	0	0	0	0	0	0
0.2800000000000001	0	0	0	0	0.93	0	39.08632571910194	-49.99627417210744	-39.99783993074853	73.9998697375876	1.291541372967816	26.65669969468619	0	0	30.45537819835414	29.99619916847245	39.99836324476792	41.73057639036225	0.7283359567668318	-11.52800201329441	0	0	0	0	0	0	0	0	0	0	0	0	0	0	0	0	0	0	0
0.2900000000000001	0	0	0	0	0.93	0	39.09011103938254	-49.99627548993491	-39.99784012242327	73.98460938443817	1.291275029560341	26.64550362686667	0	0	30.45615925121626	29.99619995237177	39.99836328719817	41.72829281833452	0.7282961009162414	-11.52784767242131	0	0	0	0	0	0	0	0	0	0	0	0	0	0	0	0	0	0	0
0.3000000000000001	0	0	0	0	0.93	0	39.09302531507473	-49.99627648556364	-39.99784026586565	73.97251874133531	1.291064008029513	26.63541851453694	0	0	30.45413159602735	29.99620071050287	39.99836328045631	41.72711757290769	0.7282755890140243	-11.52846004706073	0	0	0	0	0	0	0	0	0	0	0	0	0	0	0	0	0	0	0
0.3100000000000001	0	0	0	0	0.93	0	39.09468118188639	-49.99627725611904	-39.99784034933548	73.96147693777162	1.290871292201968	26.626615511248	0	0	30.45347265103318	29.9962014183267	39.99836320651075	41.72621902856019	0.7282599064566853	-11.52864339681581	0	0	0	0	0	0	0	0	0	0	0	0	0	0	0	0	0	0	0
0.3200000000000001	0	0	0	0	0.93	0	39.09776327360041	-49.99627793197148	-39.9978403886545	73.95053942584184	1.290680396606817	26.61951594166857	0	0	30.44971928016351	29.99620206158085	39.99836310656831	41.72513173811358	0.7282409296584663	-11.52852850086004	0	0	0	0	0	0	0	0	0	0	0	0	0	0	0	0	0	0	0
0.3300000000000001	0	0	0	0	0.93	0	39.09891983848213	-49.9962786951296	-39.99784043179139	73.94203878132267	1.290532032371416	26.61224299083614	0	0	30.44917595462915	29.99620273742624	39.99836297000331	41.72562284500992	0.7282495010907868	-11.52795642265443	0	0	0	0	0	0	0	0	0	0	0	0	0	0	0	0	0	0	0
0.3400000000000001	0	0	0	0	0.93	0	39.0991870170504	-49.99627917475454	-39.99784042357271	73.93799745453562	1.290461497912833	26.60921041745354	0	0	30.44678170565765	29.99620317206125	39.99836276016118	41.7258429050836	0.7282533418636246	-11.52656866779696	0	0	0	0	0	0	0	0	0	0	0	0	0	0	0	0	0	0	0
0.3500000000000001	0	0	0	0	0.93	0	39.09909051399941	-49.99627976290253	-39.99784034240637	73.93522248691784	1.290413065591266	26.60587482721948	0	0	30.44485241682332	29.99620354068325	39.99836254619331	41.7265671679841	0.7282659826358884	-11.52478616528595	0	0	0	0	0	0	0	0	0	0	0	0	0	0	0	0	0	0	0
0.3600000000000002	0	0	0	0	0.93	0	39.10000701604704	-49.99628018390309	-39.99784027529752	73.93329606164134	1.290379443127398	26.60607062123703	0	0	30.44393943556091	29.99620357751964	39.99836227891684	41.72788944443177	0.7282890607135217	-11.52006005860085	0	0	0	0	0	0	0	0	0	0	0	0	0	0	0	0	0	0	0
0.3700000000000002	0	0	0	0	0.93	0	39.09907368773052	-49.99628031463561	-39.99784014612141	73.93152856512643	1.290348594493695	26.60509095053502	0	0	30.44298789824699	29.99620359555225	39.99836200533277	41.7299525202152	0.7283250681786608	-11.51602951450602	0	0	0	0	0	0	0	0	0	0	0	0	0	0	0	0	0	0	0
0.3800000000000002	0	0	0	0	0.93	0	39.09886177576372	-49.99628025522785	-39.99783998008942	73.92989544662275	1.290320091198731	26.60539120325647	0	0	30.44003924231896	29.99620349753363	39.99836174254084	41.72953596720226	0.7283177979570759	-11.5131791420412	0	0	0	0	0	0	0	0	0	0	0	0	0	0	0	0	0	0	0
0.3900000000000002	0	0	0	0	0.93	0	39.09718672629035	-49.99628015763503	-39.99783981186851	73.92871472282333	1.290299483680874	26.60521097256382	0	0	30.43910274651162	29.99620334728474	39.99836145782147	41.7290331599594	0.7283090223151851	-11.51046862580518	0	0	0	0	0	0	0	0	0	0	0	0	0	0	0	0	0	0	0
0.4000000000000002	0	0	0	0	0.93	0	39.09558553608955	-49.99627984913853	-39.99783958497951	73.92938083952066	1.290311109610445	26.60706366331696	0	0	30.43471174632003	29.99620290577059	39.99836115289922	41.72929897865722	0.7283136617266754	-11.50642569377988	0	0	0	0	0	0	0	0	0	0	0	0	0	0	0	0	0	0	0
